<mxfile host="app.diagrams.net" modified="2024-06-04T16:40:32.436Z" agent="Mozilla/5.0 (Macintosh; Intel Mac OS X 10_15_7) AppleWebKit/537.36 (KHTML, like Gecko) Chrome/125.0.0.0 Safari/537.36" etag="6hglMA2_iEQKIZTdaRvd" version="24.4.4" type="device">
  <diagram name="Page-1" id="WF6fHiOmxQ_n3e86Cbql">
    <mxGraphModel dx="1769" dy="2049" grid="1" gridSize="10" guides="1" tooltips="1" connect="1" arrows="1" fold="1" page="1" pageScale="1" pageWidth="1169" pageHeight="827" math="0" shadow="0">
      <root>
        <mxCell id="0" />
        <mxCell id="1" parent="0" />
        <mxCell id="6JoBVwuDcDcamcPHOWxu-12" value="" style="group" parent="1" vertex="1" connectable="0">
          <mxGeometry x="115" y="-780" width="1010" height="220" as="geometry" />
        </mxCell>
        <mxCell id="6JoBVwuDcDcamcPHOWxu-15" value="" style="group" parent="6JoBVwuDcDcamcPHOWxu-12" vertex="1" connectable="0">
          <mxGeometry width="1010" height="220" as="geometry" />
        </mxCell>
        <mxCell id="6JoBVwuDcDcamcPHOWxu-1" value="" style="html=1;dropTarget=0;whiteSpace=wrap;fillColor=#ffe6cc;strokeColor=#d79b00;" parent="6JoBVwuDcDcamcPHOWxu-15" vertex="1">
          <mxGeometry y="-10" width="1010" height="230" as="geometry" />
        </mxCell>
        <mxCell id="6JoBVwuDcDcamcPHOWxu-2" value="" style="shape=module;jettyWidth=8;jettyHeight=4;" parent="6JoBVwuDcDcamcPHOWxu-1" vertex="1">
          <mxGeometry x="1" width="20" height="20" relative="1" as="geometry">
            <mxPoint x="-27" y="7" as="offset" />
          </mxGeometry>
        </mxCell>
        <mxCell id="Rcy6E3cn1DnA0zf6Tcbc-15" value="" style="html=1;dropTarget=0;whiteSpace=wrap;fillColor=#dae8fc;strokeColor=#6c8ebf;" vertex="1" parent="6JoBVwuDcDcamcPHOWxu-15">
          <mxGeometry x="551.84" y="30.37999999999998" width="438.16" height="149.23" as="geometry" />
        </mxCell>
        <mxCell id="6JoBVwuDcDcamcPHOWxu-3" value="&lt;b&gt;&lt;font style=&quot;font-size: 14px;&quot;&gt;HadesCI&lt;/font&gt;&lt;/b&gt;" style="text;html=1;align=center;verticalAlign=middle;whiteSpace=wrap;rounded=0;" parent="6JoBVwuDcDcamcPHOWxu-15" vertex="1">
          <mxGeometry x="435.00303797468354" width="69.1139240506329" height="25.384615384615383" as="geometry" />
        </mxCell>
        <mxCell id="6JoBVwuDcDcamcPHOWxu-20" value="" style="group" parent="6JoBVwuDcDcamcPHOWxu-15" vertex="1" connectable="0">
          <mxGeometry x="530" y="50.77" width="450" height="149.23" as="geometry" />
        </mxCell>
        <mxCell id="Rcy6E3cn1DnA0zf6Tcbc-21" value="" style="html=1;dropTarget=0;whiteSpace=wrap;" vertex="1" parent="6JoBVwuDcDcamcPHOWxu-20">
          <mxGeometry x="278.162995951417" y="44.234666666666726" width="150" height="90" as="geometry" />
        </mxCell>
        <mxCell id="Rcy6E3cn1DnA0zf6Tcbc-13" value="" style="html=1;dropTarget=0;whiteSpace=wrap;fillColor=#dae8fc;strokeColor=#6c8ebf;" vertex="1" parent="6JoBVwuDcDcamcPHOWxu-20">
          <mxGeometry x="11.84" y="-10" width="438.16" height="149.23" as="geometry" />
        </mxCell>
        <mxCell id="6JoBVwuDcDcamcPHOWxu-16" value="" style="html=1;dropTarget=0;whiteSpace=wrap;fillColor=#dae8fc;strokeColor=#6c8ebf;" parent="6JoBVwuDcDcamcPHOWxu-20" vertex="1">
          <mxGeometry width="438.16" height="149.23" as="geometry" />
        </mxCell>
        <mxCell id="6JoBVwuDcDcamcPHOWxu-17" value="" style="shape=module;jettyWidth=8;jettyHeight=4;" parent="6JoBVwuDcDcamcPHOWxu-16" vertex="1">
          <mxGeometry x="1" width="20" height="20" relative="1" as="geometry">
            <mxPoint x="-27" y="7" as="offset" />
          </mxGeometry>
        </mxCell>
        <mxCell id="6JoBVwuDcDcamcPHOWxu-18" value="&lt;b&gt;&lt;font style=&quot;font-size: 14px;&quot;&gt;Build Agent&lt;/font&gt;&lt;/b&gt;" style="text;html=1;align=center;verticalAlign=middle;whiteSpace=wrap;rounded=0;" parent="6JoBVwuDcDcamcPHOWxu-20" vertex="1">
          <mxGeometry x="164.98923076923077" width="108.17307692307692" height="29.84057345454545" as="geometry" />
        </mxCell>
        <mxCell id="6JoBVwuDcDcamcPHOWxu-37" style="edgeStyle=orthogonalEdgeStyle;rounded=0;orthogonalLoop=1;jettySize=auto;html=1;exitX=0;exitY=0.5;exitDx=0;exitDy=0;endArrow=halfCircle;endFill=0;" parent="6JoBVwuDcDcamcPHOWxu-20" source="6JoBVwuDcDcamcPHOWxu-21" edge="1">
          <mxGeometry relative="1" as="geometry">
            <mxPoint x="-58" y="94.23000000000002" as="targetPoint" />
          </mxGeometry>
        </mxCell>
        <mxCell id="6JoBVwuDcDcamcPHOWxu-38" style="edgeStyle=orthogonalEdgeStyle;rounded=0;orthogonalLoop=1;jettySize=auto;html=1;exitX=1;exitY=0.5;exitDx=0;exitDy=0;dashed=1;endSize=8;endArrow=classic;endFill=1;targetPerimeterSpacing=0;" parent="6JoBVwuDcDcamcPHOWxu-20" source="6JoBVwuDcDcamcPHOWxu-21" target="6JoBVwuDcDcamcPHOWxu-23" edge="1">
          <mxGeometry relative="1" as="geometry" />
        </mxCell>
        <mxCell id="6JoBVwuDcDcamcPHOWxu-21" value="&lt;b&gt;&lt;font style=&quot;font-size: 14px;&quot;&gt;Scheduler&lt;/font&gt;&lt;/b&gt;" style="html=1;dropTarget=0;whiteSpace=wrap;" parent="6JoBVwuDcDcamcPHOWxu-20" vertex="1">
          <mxGeometry x="14.99" y="49.23" width="150" height="90" as="geometry" />
        </mxCell>
        <mxCell id="6JoBVwuDcDcamcPHOWxu-22" value="" style="shape=module;jettyWidth=8;jettyHeight=4;" parent="6JoBVwuDcDcamcPHOWxu-21" vertex="1">
          <mxGeometry x="1" width="20" height="20" relative="1" as="geometry">
            <mxPoint x="-27" y="7" as="offset" />
          </mxGeometry>
        </mxCell>
        <mxCell id="Rcy6E3cn1DnA0zf6Tcbc-25" value="" style="html=1;dropTarget=0;whiteSpace=wrap;" vertex="1" parent="6JoBVwuDcDcamcPHOWxu-20">
          <mxGeometry x="275.00299595141695" y="39.234666666666726" width="150" height="90" as="geometry" />
        </mxCell>
        <mxCell id="Rcy6E3cn1DnA0zf6Tcbc-23" value="" style="html=1;dropTarget=0;whiteSpace=wrap;" vertex="1" parent="6JoBVwuDcDcamcPHOWxu-20">
          <mxGeometry x="270.00299595141695" y="44.234666666666726" width="150" height="90" as="geometry" />
        </mxCell>
        <mxCell id="6JoBVwuDcDcamcPHOWxu-23" value="&lt;b&gt;&lt;font style=&quot;font-size: 14px;&quot;&gt;Docker Executor&lt;/font&gt;&lt;/b&gt;" style="html=1;dropTarget=0;whiteSpace=wrap;" parent="6JoBVwuDcDcamcPHOWxu-20" vertex="1">
          <mxGeometry x="265.00299595141695" y="49.234666666666726" width="150" height="90" as="geometry" />
        </mxCell>
        <mxCell id="6JoBVwuDcDcamcPHOWxu-24" value="" style="shape=module;jettyWidth=8;jettyHeight=4;" parent="6JoBVwuDcDcamcPHOWxu-23" vertex="1">
          <mxGeometry x="1" width="20" height="20" relative="1" as="geometry">
            <mxPoint x="-27" y="7" as="offset" />
          </mxGeometry>
        </mxCell>
        <mxCell id="6JoBVwuDcDcamcPHOWxu-25" style="edgeStyle=orthogonalEdgeStyle;rounded=0;orthogonalLoop=1;jettySize=auto;html=1;exitX=0;exitY=0.5;exitDx=0;exitDy=0;endArrow=circle;endFill=0;strokeWidth=1;startSize=6;endSize=4;" parent="6JoBVwuDcDcamcPHOWxu-15" source="6JoBVwuDcDcamcPHOWxu-4" edge="1">
          <mxGeometry relative="1" as="geometry">
            <mxPoint x="-60" y="145" as="targetPoint" />
          </mxGeometry>
        </mxCell>
        <mxCell id="6JoBVwuDcDcamcPHOWxu-28" style="edgeStyle=orthogonalEdgeStyle;rounded=0;orthogonalLoop=1;jettySize=auto;html=1;exitX=1;exitY=0.5;exitDx=0;exitDy=0;endArrow=halfCircle;endFill=0;sourcePerimeterSpacing=0;targetPerimeterSpacing=0;jumpSize=6;" parent="6JoBVwuDcDcamcPHOWxu-15" source="6JoBVwuDcDcamcPHOWxu-4" edge="1">
          <mxGeometry relative="1" as="geometry">
            <mxPoint x="220" y="145" as="targetPoint" />
          </mxGeometry>
        </mxCell>
        <mxCell id="6JoBVwuDcDcamcPHOWxu-4" value="&lt;b&gt;&lt;font style=&quot;font-size: 14px;&quot;&gt;Gateway&lt;/font&gt;&lt;/b&gt;" style="html=1;dropTarget=0;whiteSpace=wrap;" parent="6JoBVwuDcDcamcPHOWxu-15" vertex="1">
          <mxGeometry x="20" y="100" width="150" height="90" as="geometry" />
        </mxCell>
        <mxCell id="6JoBVwuDcDcamcPHOWxu-5" value="" style="shape=module;jettyWidth=8;jettyHeight=4;" parent="6JoBVwuDcDcamcPHOWxu-4" vertex="1">
          <mxGeometry x="1" width="20" height="20" relative="1" as="geometry">
            <mxPoint x="-27" y="7" as="offset" />
          </mxGeometry>
        </mxCell>
        <mxCell id="6JoBVwuDcDcamcPHOWxu-29" style="edgeStyle=orthogonalEdgeStyle;rounded=0;orthogonalLoop=1;jettySize=auto;html=1;endArrow=circle;endFill=0;sourcePerimeterSpacing=0;targetPerimeterSpacing=0;endSize=4;" parent="6JoBVwuDcDcamcPHOWxu-15" source="6JoBVwuDcDcamcPHOWxu-6" edge="1">
          <mxGeometry relative="1" as="geometry">
            <mxPoint x="215" y="145" as="targetPoint" />
          </mxGeometry>
        </mxCell>
        <mxCell id="6JoBVwuDcDcamcPHOWxu-36" style="edgeStyle=orthogonalEdgeStyle;rounded=0;orthogonalLoop=1;jettySize=auto;html=1;exitX=1;exitY=0.5;exitDx=0;exitDy=0;endArrow=circle;endFill=0;endSize=4;" parent="6JoBVwuDcDcamcPHOWxu-15" source="6JoBVwuDcDcamcPHOWxu-6" edge="1">
          <mxGeometry relative="1" as="geometry">
            <mxPoint x="477" y="145" as="targetPoint" />
          </mxGeometry>
        </mxCell>
        <mxCell id="6JoBVwuDcDcamcPHOWxu-6" value="&lt;b&gt;&lt;font style=&quot;font-size: 14px;&quot;&gt;Queue&lt;/font&gt;&lt;/b&gt;" style="html=1;dropTarget=0;whiteSpace=wrap;" parent="6JoBVwuDcDcamcPHOWxu-15" vertex="1">
          <mxGeometry x="270.44" y="100" width="150" height="90" as="geometry" />
        </mxCell>
        <mxCell id="6JoBVwuDcDcamcPHOWxu-7" value="" style="shape=module;jettyWidth=8;jettyHeight=4;" parent="6JoBVwuDcDcamcPHOWxu-6" vertex="1">
          <mxGeometry x="1" width="20" height="20" relative="1" as="geometry">
            <mxPoint x="-27" y="7" as="offset" />
          </mxGeometry>
        </mxCell>
        <mxCell id="6JoBVwuDcDcamcPHOWxu-42" value="&lt;font style=&quot;font-size: 14px;&quot;&gt;Enqueue&lt;br&gt;API&lt;/font&gt;" style="text;html=1;align=center;verticalAlign=middle;whiteSpace=wrap;rounded=0;" parent="6JoBVwuDcDcamcPHOWxu-15" vertex="1">
          <mxGeometry x="190" y="170" width="60" height="30" as="geometry" />
        </mxCell>
        <mxCell id="6JoBVwuDcDcamcPHOWxu-43" value="&lt;font style=&quot;font-size: 14px;&quot;&gt;Dequeue&lt;br&gt;API&lt;/font&gt;" style="text;html=1;align=center;verticalAlign=middle;whiteSpace=wrap;rounded=0;" parent="6JoBVwuDcDcamcPHOWxu-15" vertex="1">
          <mxGeometry x="444.5" y="170" width="60" height="30" as="geometry" />
        </mxCell>
        <mxCell id="6JoBVwuDcDcamcPHOWxu-41" value="&lt;font style=&quot;font-size: 14px;&quot;&gt;HadesCI API&lt;/font&gt;" style="text;html=1;align=center;verticalAlign=middle;whiteSpace=wrap;rounded=0;" parent="1" vertex="1">
          <mxGeometry x="30" y="-680" width="60" height="30" as="geometry" />
        </mxCell>
      </root>
    </mxGraphModel>
  </diagram>
</mxfile>
